<?xml version="1.0" encoding="UTF-8" standalone="no"?>
<!DOCTYPE svg PUBLIC "-//W3C//DTD SVG 1.1//EN" "http://www.w3.org/Graphics/SVG/1.1/DTD/svg11.dtd">
<svg width="100%" height="100%" viewBox="0 0 970 970" version="1.1" xmlns="http://www.w3.org/2000/svg" xmlns:xlink="http://www.w3.org/1999/xlink" xml:space="preserve" xmlns:serif="http://www.serif.com/" style="fill-rule:evenodd;clip-rule:evenodd;stroke-linejoin:round;stroke-miterlimit:2;">
    <g transform="matrix(1,0,0,1,-27,-27)">
        <g transform="matrix(1.024,0,0,1.024,0,0)">
            <g id="Sewing" transform="matrix(0.215799,0,0,0.215799,39.711,39.4294)">
                <path d="M4299.66,1591.69C4299.66,1609.9 4284.88,1624.69 4266.67,1624.69C4248.45,1624.69 4233.67,1609.9 4233.67,1591.69L4233.67,1292.86C4233.67,1274.65 4248.45,1259.87 4266.67,1259.87C4284.88,1259.87 4299.66,1274.65 4299.66,1292.86L4299.66,1591.69ZM4299.66,2002.6C4299.66,2020.81 4284.88,2035.59 4266.67,2035.59C4248.45,2035.59 4233.67,2020.81 4233.67,2002.6L4233.67,1703.76C4233.67,1685.55 4248.45,1670.76 4266.67,1670.76C4284.88,1670.76 4299.66,1685.55 4299.66,1703.76L4299.66,2002.6ZM4299.66,2413.49C4299.66,2431.7 4284.88,2446.49 4266.67,2446.49C4248.45,2446.49 4233.67,2431.7 4233.67,2413.49L4233.67,2114.66C4233.67,2096.45 4248.45,2081.66 4266.67,2081.66C4284.88,2081.66 4299.66,2096.45 4299.66,2114.66L4299.66,2413.49ZM4299.66,2824.39C4299.66,2842.6 4284.88,2857.38 4266.67,2857.38C4248.45,2857.38 4233.67,2842.6 4233.67,2824.39L4233.67,2525.55C4233.67,2507.34 4248.45,2492.55 4266.67,2492.55C4284.88,2492.55 4299.66,2507.34 4299.66,2525.55L4299.66,2824.39ZM4233.67,2936.45C4233.67,2918.24 4248.45,2903.45 4266.67,2903.45C4284.88,2903.45 4299.66,2918.24 4299.66,2936.45L4299.66,3160.58C4299.66,3187.89 4298.7,3214.98 4296.81,3241.81C4295.52,3259.98 4279.73,3273.68 4261.57,3272.4C4243.4,3271.12 4229.69,3255.33 4230.97,3237.16C4232.76,3211.86 4233.67,3186.32 4233.67,3160.58L4233.67,2936.45ZM4178.97,3499.49C4187,3475.37 4194.21,3450.86 4200.54,3426.01C4206.81,3401.39 4212.23,3376.42 4216.77,3351.16C4219.99,3333.23 4237.15,3321.29 4255.08,3324.51C4273,3327.73 4284.94,3344.89 4281.73,3362.82C4276.91,3389.65 4271.15,3416.16 4264.49,3442.3C4257.76,3468.7 4250.11,3494.72 4241.58,3520.35C4224.33,3572.14 4203.46,3622.29 4179.27,3670.49C4171.1,3686.76 4151.25,3693.34 4134.97,3685.17C4118.7,3677 4112.11,3657.16 4120.28,3640.88C4143.07,3595.49 4162.72,3548.27 4178.97,3499.49ZM3971.44,3863.15C3988.17,3843.86 4004.22,3823.97 4019.56,3803.52C4034.87,3783.11 4049.47,3762.14 4063.32,3740.64C4073.19,3725.33 4093.62,3720.91 4108.93,3730.77C4124.24,3740.64 4128.66,3761.07 4118.8,3776.38C4104.1,3799.2 4088.6,3821.46 4072.36,3843.12C4056.08,3864.82 4039.04,3885.93 4021.29,3906.39C3985.76,3947.36 3947.36,3985.76 3906.39,4021.29C3892.63,4033.23 3871.78,4031.74 3859.84,4017.99C3847.91,4004.23 3849.39,3983.37 3863.15,3971.44C3901.76,3937.95 3937.95,3901.76 3971.44,3863.15ZM3640.88,4120.28C3663.76,4108.8 3686.16,4096.53 3708.07,4083.49C3730.05,4070.41 3751.53,4056.57 3772.47,4042C3787.42,4031.6 3808,4035.29 3818.4,4050.24C3828.81,4065.19 3825.11,4085.77 3810.17,4096.17C3787.95,4111.63 3765.15,4126.33 3741.81,4140.21C3718.56,4154.05 3694.77,4167.08 3670.49,4179.27C3622.29,4203.46 3572.14,4224.33 3520.35,4241.58C3503.07,4247.34 3484.37,4237.98 3478.61,4220.7C3472.86,4203.42 3482.21,4184.72 3499.49,4178.97C3548.27,4162.72 3595.49,4143.07 3640.88,4120.28ZM3237.16,4230.97C3262.81,4229.16 3288.22,4226.45 3313.34,4222.86C3338.77,4219.23 3363.91,4214.71 3388.73,4209.33C3406.53,4205.47 3424.11,4216.78 3427.97,4234.58C3431.83,4252.38 3420.51,4269.96 3402.72,4273.82C3376.36,4279.54 3349.67,4284.34 3322.67,4288.19C3296,4292 3269.04,4294.88 3241.81,4296.81C3214.98,4298.7 3187.89,4299.66 3160.58,4299.66L3085.87,4299.66C3067.65,4299.66 3052.87,4284.88 3052.87,4266.67C3052.87,4248.45 3067.65,4233.67 3085.87,4233.67L3160.58,4233.67C3186.32,4233.67 3211.86,4232.76 3237.16,4230.97ZM2973.8,4233.67C2992.01,4233.67 3006.8,4248.45 3006.8,4266.67C3006.8,4284.88 2992.01,4299.66 2973.8,4299.66L2674.97,4299.66C2656.76,4299.66 2641.98,4284.88 2641.98,4266.67C2641.98,4248.45 2656.76,4233.67 2674.97,4233.67L2973.8,4233.67ZM2562.91,4233.67C2581.12,4233.67 2595.91,4248.45 2595.91,4266.67C2595.91,4284.88 2581.12,4299.66 2562.91,4299.66L2264.07,4299.66C2245.86,4299.66 2231.07,4284.88 2231.07,4266.67C2231.07,4248.45 2245.86,4233.67 2264.07,4233.67L2562.91,4233.67ZM2152.01,4233.67C2170.22,4233.67 2185.01,4248.45 2185.01,4266.67C2185.01,4284.88 2170.22,4299.66 2152.01,4299.66L1853.17,4299.66C1834.96,4299.66 1820.18,4284.88 1820.18,4266.67C1820.18,4248.45 1834.96,4233.67 1853.17,4233.67L2152.01,4233.67ZM1741.12,4233.67C1759.33,4233.67 1774.11,4248.45 1774.11,4266.67C1774.11,4284.88 1759.33,4299.66 1741.12,4299.66L1442.28,4299.66C1424.07,4299.66 1409.28,4284.88 1409.28,4266.67C1409.28,4248.45 1424.07,4233.67 1442.28,4233.67L1741.12,4233.67ZM1330.22,4233.67C1348.43,4233.67 1363.22,4248.45 1363.22,4266.67C1363.22,4284.88 1348.43,4299.66 1330.22,4299.66L1106.09,4299.66C1078.78,4299.66 1051.69,4298.7 1024.86,4296.81C1006.69,4295.52 992.983,4279.73 994.266,4261.57C995.549,4243.4 1011.34,4229.69 1029.51,4230.97C1054.8,4232.76 1080.34,4233.67 1106.09,4233.67L1330.22,4233.67ZM767.174,4178.97C791.301,4187 815.809,4194.21 840.661,4200.54C865.282,4206.81 890.243,4212.23 915.509,4216.77C933.434,4219.99 945.375,4237.15 942.157,4255.08C938.939,4273 921.774,4284.94 903.848,4281.73C877.017,4276.91 850.511,4271.15 824.364,4264.49C797.971,4257.76 771.943,4250.11 746.319,4241.58C694.525,4224.33 644.378,4203.46 596.181,4179.27C579.905,4171.1 573.323,4151.25 581.493,4134.97C589.662,4118.7 609.51,4112.11 625.786,4120.28C671.174,4143.07 718.398,4162.72 767.174,4178.97ZM403.519,3971.44C422.804,3988.17 442.691,4004.22 463.143,4019.56C483.554,4034.87 504.528,4049.47 526.028,4063.32C541.337,4073.19 545.758,4093.62 535.894,4108.93C526.03,4124.24 505.592,4128.66 490.283,4118.8C467.466,4104.1 445.207,4088.6 423.545,4072.36C401.843,4056.08 380.74,4039.04 360.276,4021.29C319.312,3985.76 280.906,3947.36 245.374,3906.39C233.44,3892.63 234.921,3871.78 248.679,3859.84C262.436,3847.91 283.294,3849.39 295.227,3863.15C328.715,3901.76 364.912,3937.95 403.519,3971.44ZM146.382,3640.88C157.864,3663.76 170.139,3686.16 183.172,3708.07C196.252,3730.05 210.096,3751.53 224.665,3772.47C235.068,3787.42 231.377,3808 216.429,3818.4C201.481,3828.81 180.899,3825.11 170.497,3810.17C155.033,3787.95 140.34,3765.15 126.457,3741.81C112.621,3718.56 99.589,3694.77 87.4,3670.49C63.209,3622.29 42.337,3572.14 25.086,3520.35C19.331,3503.07 28.687,3484.37 45.965,3478.61C63.244,3472.86 81.944,3482.21 87.699,3499.49C103.945,3548.27 123.6,3595.49 146.382,3640.88ZM35.692,3237.16C37.504,3262.81 40.219,3288.22 43.806,3313.34C47.435,3338.77 51.958,3363.91 57.34,3388.73C61.2,3406.53 49.883,3424.11 32.085,3427.97C14.287,3431.83 -3.296,3420.51 -7.156,3402.72C-12.871,3376.36 -17.673,3349.67 -21.527,3322.67C-25.333,3296 -28.215,3269.04 -30.138,3241.81C-32.033,3214.98 -32.997,3187.89 -32.997,3160.58L-32.997,3085.87C-32.997,3067.65 -18.212,3052.87 -0,3052.87C18.212,3052.87 32.997,3067.65 32.997,3085.87L32.997,3160.58C32.997,3186.32 33.906,3211.86 35.692,3237.16ZM32.997,2973.8C32.997,2992.01 18.212,3006.8 0,3006.8C-18.212,3006.8 -32.997,2992.01 -32.997,2973.8L-32.997,2674.97C-32.997,2656.76 -18.212,2641.98 0,2641.98C18.212,2641.98 32.997,2656.76 32.997,2674.97L32.997,2973.8ZM32.997,2562.91C32.997,2581.12 18.212,2595.91 0,2595.91C-18.212,2595.91 -32.997,2581.12 -32.997,2562.91L-32.997,2264.07C-32.997,2245.86 -18.212,2231.07 -0,2231.07C18.212,2231.07 32.997,2245.86 32.997,2264.07L32.997,2562.91ZM32.997,2152.01C32.997,2170.22 18.212,2185.01 -0,2185.01C-18.212,2185.01 -32.997,2170.22 -32.997,2152.01L-32.997,1853.17C-32.997,1834.96 -18.212,1820.18 -0,1820.18C18.212,1820.18 32.997,1834.96 32.997,1853.17L32.997,2152.01ZM32.997,1741.12C32.997,1759.33 18.212,1774.11 -0,1774.11C-18.212,1774.11 -32.997,1759.33 -32.997,1741.12L-32.997,1442.28C-32.997,1424.07 -18.212,1409.28 0,1409.28C18.212,1409.28 32.997,1424.07 32.997,1442.28L32.997,1741.12ZM32.997,1330.22C32.997,1348.43 18.212,1363.22 0,1363.22C-18.212,1363.22 -32.997,1348.43 -32.997,1330.22L-32.997,1106.09C-32.997,1078.78 -32.033,1051.69 -30.138,1024.86C-28.855,1006.69 -13.065,992.983 5.102,994.266C23.268,995.549 36.975,1011.34 35.692,1029.51C33.906,1054.8 32.997,1080.34 32.997,1106.09L32.997,1330.22ZM2.177,824.364C8.903,797.971 16.552,771.943 25.086,746.319C42.337,694.525 63.209,644.378 87.401,596.181C95.57,579.905 115.417,573.323 131.694,581.493C147.97,589.662 154.552,609.51 146.382,625.786C123.601,671.174 103.945,718.398 87.699,767.174C79.663,791.301 72.461,815.809 66.128,840.661C59.854,865.282 54.432,890.243 49.897,915.509C46.679,933.434 29.513,945.375 11.588,942.157C-6.337,938.939 -18.277,921.774 -15.06,903.848C-10.243,877.017 -4.485,850.511 2.177,824.364ZM194.312,423.545C210.589,401.843 227.622,380.74 245.373,360.276C280.905,319.312 319.311,280.906 360.275,245.374C374.033,233.44 394.89,234.921 406.823,248.679C418.757,262.436 417.276,283.294 403.518,295.227C364.911,328.715 328.714,364.912 295.226,403.519C278.498,422.804 262.446,442.691 247.106,463.143C231.797,483.554 217.198,504.528 203.345,526.028C193.481,541.337 173.044,545.758 157.735,535.894C142.426,526.03 138.005,505.592 147.869,490.283C162.57,467.466 178.064,445.207 194.312,423.545ZM524.854,126.457C548.109,112.621 571.898,99.589 596.181,87.4C644.378,63.209 694.525,42.337 746.32,25.086C763.598,19.331 782.298,28.687 788.053,45.965C793.808,63.244 784.452,81.944 767.174,87.699C718.398,103.945 671.174,123.6 625.786,146.382C602.912,157.864 580.503,170.139 558.597,183.172C536.613,196.252 515.133,210.096 494.197,224.665C479.249,235.068 458.667,231.377 448.264,216.429C437.862,201.481 441.552,180.899 456.501,170.497C478.722,155.033 501.52,140.34 524.854,126.457ZM943.999,-21.527C970.665,-25.333 997.629,-28.215 1024.86,-30.138C1051.69,-32.033 1078.78,-32.997 1106.09,-32.997L1180.8,-32.997C1199.01,-32.997 1213.8,-18.212 1213.8,0C1213.8,18.212 1199.01,32.997 1180.8,32.997L1106.09,32.997C1080.34,32.997 1054.8,33.906 1029.51,35.692C1003.85,37.504 978.449,40.219 953.325,43.806C927.899,47.435 902.759,51.958 877.938,57.34C860.139,61.2 842.556,49.883 838.697,32.085C834.837,14.287 846.154,-3.296 863.952,-7.156C890.307,-12.871 917.001,-17.673 943.999,-21.527ZM1591.69,-32.997C1609.9,-32.997 1624.69,-18.212 1624.69,-0C1624.69,18.212 1609.9,32.997 1591.69,32.997L1292.86,32.997C1274.65,32.997 1259.87,18.212 1259.87,0C1259.87,-18.212 1274.65,-32.997 1292.86,-32.997L1591.69,-32.997ZM2002.6,-32.997C2020.81,-32.997 2035.59,-18.212 2035.59,-0C2035.59,18.212 2020.81,32.997 2002.6,32.997L1703.76,32.997C1685.55,32.997 1670.76,18.212 1670.76,-0C1670.76,-18.212 1685.55,-32.997 1703.76,-32.997L2002.6,-32.997ZM2413.49,-32.997C2431.7,-32.997 2446.49,-18.212 2446.49,0C2446.49,18.212 2431.7,32.997 2413.49,32.997L2114.66,32.997C2096.45,32.997 2081.66,18.212 2081.66,0C2081.66,-18.212 2096.45,-32.997 2114.66,-32.997L2413.49,-32.997ZM2824.39,-32.997C2842.6,-32.997 2857.38,-18.212 2857.38,-0C2857.38,18.212 2842.6,32.997 2824.39,32.997L2525.55,32.997C2507.34,32.997 2492.55,18.212 2492.55,0C2492.55,-18.212 2507.34,-32.997 2525.55,-32.997L2824.39,-32.997ZM3160.58,-32.997C3187.89,-32.997 3214.98,-32.033 3241.81,-30.138C3259.98,-28.855 3273.68,-13.065 3272.4,5.102C3271.12,23.268 3255.33,36.975 3237.16,35.692C3211.86,33.906 3186.32,32.997 3160.58,32.997L2936.45,32.997C2918.24,32.997 2903.45,18.212 2903.45,-0C2903.45,-18.212 2918.24,-32.997 2936.45,-32.997L3160.58,-32.997ZM3442.3,2.177C3468.7,8.903 3494.72,16.552 3520.35,25.086C3572.14,42.337 3622.29,63.209 3670.49,87.401C3686.76,95.57 3693.34,115.417 3685.17,131.694C3677,147.97 3657.16,154.552 3640.88,146.382C3595.49,123.601 3548.27,103.945 3499.49,87.699C3475.37,79.663 3450.86,72.461 3426.01,66.128C3401.39,59.854 3376.42,54.432 3351.16,49.897C3333.23,46.679 3321.29,29.513 3324.51,11.588C3327.73,-6.337 3344.89,-18.277 3362.82,-15.06C3389.65,-10.243 3416.16,-4.485 3442.3,2.177ZM3843.12,194.312C3864.82,210.589 3885.93,227.622 3906.39,245.373C3947.36,280.905 3985.76,319.311 4021.29,360.275C4033.23,374.033 4031.74,394.89 4017.99,406.823C4004.23,418.757 3983.37,417.276 3971.44,403.518C3937.95,364.911 3901.76,328.714 3863.15,295.226C3843.86,278.498 3823.97,262.446 3803.52,247.106C3783.11,231.797 3762.14,217.198 3740.64,203.345C3725.33,193.481 3720.91,173.044 3730.77,157.735C3740.64,142.426 3761.07,138.005 3776.38,147.869C3799.2,162.57 3821.46,178.064 3843.12,194.312ZM4140.21,524.854C4154.05,548.109 4167.08,571.898 4179.27,596.181C4203.46,644.378 4224.33,694.525 4241.58,746.32C4247.34,763.598 4237.98,782.298 4220.7,788.053C4203.42,793.808 4184.72,784.452 4178.97,767.174C4162.72,718.398 4143.07,671.174 4120.28,625.786C4108.8,602.912 4096.53,580.503 4083.49,558.597C4070.41,536.613 4056.57,515.133 4042,494.197C4031.6,479.249 4035.29,458.667 4050.24,448.264C4065.19,437.862 4085.77,441.552 4096.17,456.501C4111.63,478.722 4126.33,501.52 4140.21,524.854ZM4288.19,943.999C4292,970.665 4294.88,997.629 4296.81,1024.86C4298.7,1051.69 4299.66,1078.78 4299.66,1106.09L4299.66,1180.8C4299.66,1199.01 4284.88,1213.8 4266.67,1213.8C4248.45,1213.8 4233.67,1199.01 4233.67,1180.8L4233.67,1106.09C4233.67,1080.34 4232.76,1054.8 4230.97,1029.51C4229.16,1003.85 4226.45,978.449 4222.86,953.325C4219.23,927.899 4214.71,902.759 4209.33,877.938C4205.47,860.139 4216.78,842.556 4234.58,838.697C4252.38,834.837 4269.96,846.154 4273.82,863.952C4279.54,890.307 4284.34,917.001 4288.19,943.999Z" style="fill:rgb(227,227,227);"/>
            </g>
        </g>
    </g>
</svg>
