<?xml version="1.0" encoding="UTF-8" standalone="no"?>
<!DOCTYPE svg PUBLIC "-//W3C//DTD SVG 1.1//EN" "http://www.w3.org/Graphics/SVG/1.1/DTD/svg11.dtd">
<svg width="100%" height="100%" viewBox="0 0 588 80" version="1.1" xmlns="http://www.w3.org/2000/svg" xmlns:xlink="http://www.w3.org/1999/xlink" xml:space="preserve" xmlns:serif="http://www.serif.com/" style="fill-rule:evenodd;clip-rule:evenodd;stroke-linejoin:round;stroke-miterlimit:2;">
    <g transform="matrix(1,0,0,1,-218,-800)">
        <g transform="matrix(1.024,0,0,1.024,0,0)">
            <g id="Balance" transform="matrix(0.976563,0,0,0.976563,-100.319,356.098)">
                <path d="M330.877,484.844C330.877,494.044 330.877,501.944 330.377,506.144C329.977,509.044 329.477,511.244 327.477,511.644C326.577,511.844 325.377,512.044 323.877,512.044C322.677,512.044 322.277,512.344 322.277,512.844C322.277,513.544 322.977,513.844 324.277,513.844C326.277,513.844 328.877,513.644 331.177,513.644C333.577,513.544 335.777,513.544 336.877,513.544C338.377,513.544 341.377,513.644 344.377,513.844C347.277,513.944 350.177,514.144 351.377,514.144C369.777,514.144 378.077,503.044 378.077,492.344C378.077,480.644 368.077,473.544 359.877,470.744C365.377,466.344 370.077,461.444 370.077,453.244C370.077,447.944 366.877,438.244 348.777,438.244C345.377,438.244 341.477,438.544 336.577,438.544C334.577,438.544 328.277,438.244 322.977,438.244C321.477,438.244 320.777,438.444 320.777,439.144C320.777,439.844 321.377,440.044 322.477,440.044C323.877,440.044 325.577,440.144 326.377,440.344C329.677,441.044 330.477,442.644 330.677,446.044C330.877,449.244 330.877,452.044 330.877,467.244L330.877,484.844ZM342.877,444.244C342.877,443.144 343.077,442.744 343.777,442.544C344.777,442.344 345.677,442.344 347.077,442.344C355.677,442.344 359.577,451.144 359.577,457.844C359.577,462.744 358.077,466.344 355.477,468.444C353.777,469.944 351.577,470.344 348.277,470.344C345.977,470.344 344.477,470.244 343.577,470.044C343.177,469.944 342.877,469.744 342.877,468.944L342.877,444.244ZM365.777,496.844C365.777,507.244 358.177,509.644 353.677,509.644C351.377,509.644 349.077,509.544 346.377,508.444C343.177,507.144 342.877,505.444 342.877,498.844L342.877,475.144C342.877,474.644 343.077,474.444 343.477,474.444C344.977,474.444 345.977,474.444 347.777,474.544C351.677,474.744 353.977,475.444 356.077,476.944C363.677,482.244 365.777,490.644 365.777,496.844Z" style="fill:white;fill-rule:nonzero;"/>
                <path d="M443.377,487.744C443.877,487.744 444.177,487.944 444.377,488.444L452.377,509.644C452.877,510.844 452.177,511.744 451.477,511.944C450.477,512.044 450.077,512.244 450.077,512.844C450.077,513.544 451.277,513.544 453.077,513.644C461.077,513.844 468.377,513.844 471.977,513.844C475.677,513.844 476.577,513.644 476.577,512.844C476.577,512.144 476.077,512.044 475.277,512.044C474.077,512.044 472.577,511.944 471.077,511.644C468.977,511.144 466.077,509.744 462.277,500.744C455.877,485.544 439.877,444.744 437.477,439.244C436.477,436.944 435.877,436.044 434.977,436.044C433.977,436.044 433.377,437.144 432.177,440.044L407.077,502.844C405.077,507.844 403.177,511.244 398.577,511.844C397.777,511.944 396.377,512.044 395.477,512.044C394.677,512.044 394.277,512.244 394.277,512.844C394.277,513.644 394.877,513.844 396.177,513.844C401.377,513.844 406.877,513.544 407.977,513.544C411.077,513.544 415.377,513.844 418.577,513.844C419.677,513.844 420.277,513.644 420.277,512.844C420.277,512.244 419.977,512.044 418.777,512.044L417.277,512.044C414.177,512.044 413.277,510.744 413.277,508.944C413.277,507.744 413.777,505.344 414.777,502.844L420.177,488.544C420.377,487.944 420.577,487.744 421.077,487.744L443.377,487.744ZM423.077,482.744C422.677,482.744 422.577,482.444 422.677,482.044L431.877,457.444C431.977,457.044 432.177,456.544 432.477,456.544C432.777,456.544 432.877,457.044 432.977,457.444L441.977,482.144C442.077,482.444 441.977,482.744 441.477,482.744L423.077,482.744Z" style="fill:white;fill-rule:nonzero;"/>
                <path d="M514.577,467.244C514.577,452.044 514.577,449.244 514.777,446.044C514.977,442.544 515.777,440.844 518.477,440.344C519.677,440.144 521.277,440.044 522.377,440.044C523.577,440.044 524.177,439.844 524.177,439.144C524.177,438.444 523.477,438.244 522.077,438.244C518.177,438.244 510.877,438.544 508.477,438.544C505.777,438.544 499.477,438.244 494.777,438.244C493.277,438.244 492.577,438.444 492.577,439.144C492.577,439.844 493.177,440.044 494.277,440.044C495.577,440.044 496.777,440.144 497.577,440.344C500.877,441.044 501.677,442.644 501.877,446.044C502.077,449.244 502.077,452.044 502.077,467.244L502.077,484.844C502.077,494.044 502.077,501.944 501.577,506.144C501.177,509.044 500.677,511.244 498.677,511.644C497.777,511.844 496.577,512.044 495.077,512.044C493.877,512.044 493.477,512.344 493.477,512.844C493.477,513.544 494.177,513.844 495.477,513.844C497.477,513.844 500.077,513.644 502.377,513.644C504.777,513.544 506.977,513.544 508.077,513.544C512.177,513.544 515.777,513.644 520.277,513.844C524.777,513.944 529.977,514.144 537.177,514.144C542.377,514.144 542.877,513.644 543.477,511.444C544.277,508.544 544.977,501.044 544.977,499.944C544.977,498.744 544.877,498.244 544.177,498.244C543.377,498.244 543.177,498.844 543.077,499.744C542.877,501.644 541.677,504.444 540.477,505.744C537.977,508.444 534.077,508.544 528.777,508.544C520.977,508.544 518.377,507.844 516.677,506.344C514.577,504.544 514.577,497.644 514.577,484.844L514.577,467.244Z" style="fill:white;fill-rule:nonzero;"/>
                <path d="M605.877,487.744C606.377,487.744 606.677,487.944 606.877,488.444L614.877,509.644C615.377,510.844 614.677,511.744 613.977,511.944C612.977,512.044 612.577,512.244 612.577,512.844C612.577,513.544 613.777,513.544 615.577,513.644C623.577,513.844 630.877,513.844 634.477,513.844C638.177,513.844 639.077,513.644 639.077,512.844C639.077,512.144 638.577,512.044 637.777,512.044C636.577,512.044 635.077,511.944 633.577,511.644C631.477,511.144 628.577,509.744 624.777,500.744C618.377,485.544 602.377,444.744 599.977,439.244C598.977,436.944 598.377,436.044 597.477,436.044C596.477,436.044 595.877,437.144 594.677,440.044L569.577,502.844C567.577,507.844 565.677,511.244 561.077,511.844C560.277,511.944 558.877,512.044 557.977,512.044C557.177,512.044 556.777,512.244 556.777,512.844C556.777,513.644 557.377,513.844 558.677,513.844C563.877,513.844 569.377,513.544 570.477,513.544C573.577,513.544 577.877,513.844 581.077,513.844C582.177,513.844 582.777,513.644 582.777,512.844C582.777,512.244 582.477,512.044 581.277,512.044L579.777,512.044C576.677,512.044 575.777,510.744 575.777,508.944C575.777,507.744 576.277,505.344 577.277,502.844L582.677,488.544C582.877,487.944 583.077,487.744 583.577,487.744L605.877,487.744ZM585.577,482.744C585.177,482.744 585.077,482.444 585.177,482.044L594.377,457.444C594.477,457.044 594.677,456.544 594.977,456.544C595.277,456.544 595.377,457.044 595.477,457.444L604.477,482.144C604.577,482.444 604.477,482.744 603.977,482.744L585.577,482.744Z" style="fill:white;fill-rule:nonzero;"/>
                <path d="M669.077,458.244L669.377,458.244C671.177,460.144 682.277,472.644 693.177,483.444C703.577,493.744 716.377,506.844 722.677,512.844C723.777,513.944 724.977,515.044 726.077,515.044C726.977,515.044 727.377,514.144 727.377,511.944L728.477,448.844C728.577,443.244 729.377,441.144 732.177,440.344C733.377,440.044 734.177,440.044 735.177,440.044C736.377,440.044 736.977,439.744 736.977,439.144C736.977,438.344 735.977,438.244 734.677,438.244C729.777,438.244 725.977,438.544 724.877,438.544C722.777,438.544 717.977,438.244 712.777,438.244C711.277,438.244 710.177,438.344 710.177,439.144C710.177,439.744 710.577,440.044 711.777,440.044C713.177,440.044 715.577,440.044 717.077,440.644C719.477,441.644 720.377,443.544 720.477,449.644L721.477,494.544L720.977,494.544C719.277,492.944 705.777,478.544 698.977,471.744C684.377,457.244 669.177,440.944 667.977,439.644C666.277,437.844 665.377,436.544 664.277,436.544C663.277,436.544 662.977,437.944 662.977,439.944L662.077,499.144C661.977,507.844 661.577,510.744 658.977,511.544C657.577,511.944 655.777,512.044 654.477,512.044C653.477,512.044 652.877,512.244 652.877,512.844C652.877,513.744 653.777,513.844 655.077,513.844C660.277,513.844 664.977,513.544 665.877,513.544C667.777,513.544 671.777,513.844 678.277,513.844C679.677,513.844 680.577,513.644 680.577,512.844C680.577,512.244 679.977,512.044 678.877,512.044C677.277,512.044 675.377,511.944 673.677,511.344C671.677,510.644 670.377,508.044 670.177,500.244L669.077,458.244Z" style="fill:white;fill-rule:nonzero;"/>
                <path d="M809.077,515.244C815.477,515.244 823.077,514.544 827.077,512.944C828.777,512.244 829.177,511.744 829.677,510.044C830.677,506.644 831.877,497.944 831.877,496.744C831.877,495.944 831.677,495.244 830.977,495.244C830.177,495.244 829.977,495.644 829.677,497.244C829.277,499.044 827.977,501.944 826.277,503.844C822.277,508.444 816.877,509.444 807.977,509.444C794.577,509.444 776.477,497.644 776.477,473.844C776.477,464.144 778.377,454.644 785.677,447.944C790.077,443.944 795.777,441.744 804.477,441.744C813.677,441.744 821.477,444.444 824.777,447.944C827.277,450.544 828.577,454.044 828.677,457.144C828.677,458.544 828.877,459.344 829.677,459.344C830.577,459.344 830.777,458.544 830.877,457.044C831.077,455.044 830.977,449.544 831.177,446.244C831.377,442.744 831.677,441.544 831.677,440.744C831.677,440.144 831.277,439.644 830.177,439.544C827.177,439.244 823.977,438.344 820.177,437.844C815.577,437.244 811.877,436.844 805.677,436.844C790.777,436.844 781.277,440.844 774.077,447.444C764.477,456.244 762.377,468.044 762.377,474.844C762.377,484.544 764.977,495.744 774.777,504.344C783.877,512.244 795.377,515.244 809.077,515.244Z" style="fill:white;fill-rule:nonzero;"/>
                <path d="M868.277,484.844C868.277,494.044 868.277,501.944 867.777,506.144C867.377,509.044 866.877,511.244 864.877,511.644C863.977,511.844 862.777,512.044 861.277,512.044C860.077,512.044 859.677,512.344 859.677,512.844C859.677,513.544 860.377,513.844 861.677,513.844C863.677,513.844 866.277,513.644 868.577,513.644C870.977,513.544 873.177,513.544 874.277,513.544C877.277,513.544 880.377,513.644 884.677,513.844C888.977,513.944 894.477,514.144 901.977,514.144C905.777,514.144 906.677,514.144 907.377,511.544C907.877,509.544 908.677,502.744 908.677,500.444C908.677,499.444 908.677,498.644 907.877,498.644C907.177,498.644 906.977,499.044 906.777,500.144C906.077,504.244 904.877,506.344 902.277,507.544C899.677,508.744 895.477,508.744 892.877,508.744C882.677,508.744 881.077,507.244 880.877,500.344C880.777,497.444 880.877,488.244 880.877,484.844L880.877,476.944C880.877,476.344 880.977,475.944 881.477,475.944C883.877,475.944 893.777,476.044 895.677,476.244C899.377,476.644 900.777,478.144 901.277,480.144C901.577,481.444 901.577,482.744 901.677,483.744C901.677,484.244 901.877,484.644 902.577,484.644C903.477,484.644 903.477,483.544 903.477,482.744C903.477,482.044 903.777,478.044 903.877,476.044C904.277,470.944 904.677,469.344 904.677,468.744C904.677,468.144 904.377,467.944 903.977,467.944C903.477,467.944 903.077,468.444 902.377,469.244C901.477,470.244 899.977,470.544 897.577,470.744C895.277,470.944 883.777,470.944 881.577,470.944C880.977,470.944 880.877,470.544 880.877,469.844L880.877,444.544C880.877,443.844 881.077,443.544 881.577,443.544C883.577,443.544 894.077,443.744 895.777,443.944C900.777,444.544 901.777,445.744 902.477,447.544C902.977,448.744 903.077,450.444 903.077,451.144C903.077,452.044 903.277,452.544 903.977,452.544C904.677,452.544 904.877,451.944 904.977,451.444C905.177,450.244 905.377,445.844 905.477,444.844C905.777,440.244 906.277,439.044 906.277,438.344C906.277,437.844 906.177,437.444 905.677,437.444C905.177,437.444 904.577,437.744 904.077,437.844C903.277,438.044 901.677,438.244 899.777,438.444C897.877,438.544 877.977,438.544 874.777,438.544C873.377,438.544 871.077,438.444 868.477,438.344C865.977,438.344 863.077,438.244 860.377,438.244C858.877,438.244 858.177,438.444 858.177,439.144C858.177,439.844 858.777,440.044 859.877,440.044C861.277,440.044 862.977,440.144 863.777,440.344C867.077,441.044 867.877,442.644 868.077,446.044C868.277,449.244 868.277,452.044 868.277,467.244L868.277,484.844Z" style="fill:white;fill-rule:nonzero;"/>
            </g>
        </g>
    </g>
</svg>
