<?xml version="1.0" encoding="UTF-8" standalone="no"?>
<!DOCTYPE svg PUBLIC "-//W3C//DTD SVG 1.1//EN" "http://www.w3.org/Graphics/SVG/1.1/DTD/svg11.dtd">
<svg width="100%" height="100%" viewBox="0 0 365 34" version="1.1" xmlns="http://www.w3.org/2000/svg" xmlns:xlink="http://www.w3.org/1999/xlink" xml:space="preserve" xmlns:serif="http://www.serif.com/" style="fill-rule:evenodd;clip-rule:evenodd;stroke-linejoin:round;stroke-miterlimit:2;">
    <g transform="matrix(1,0,0,1,-331,-899)">
        <g transform="matrix(1.024,0,0,1.024,0,0)">
            <g id="Hecho-en-Mexico" serif:id="Hecho en Mexico" transform="matrix(0.976563,0,0,0.976563,14.2154,409.061)">
                <path d="M324.31,499.044C324.21,499.044 324.11,498.977 324.11,498.811L324.11,498.111C324.11,493.044 324.11,492.111 324.177,491.044C324.243,489.877 324.51,489.311 325.41,489.144C325.81,489.077 326.11,489.044 326.377,489.044C326.777,489.044 326.977,488.977 326.977,488.744C326.977,488.511 326.743,488.444 326.277,488.444C324.977,488.444 322.877,488.544 322.077,488.544C321.177,488.544 319.077,488.444 317.277,488.444C316.81,488.444 316.577,488.511 316.577,488.744C316.577,488.977 316.777,489.044 317.143,489.044C317.61,489.044 318.177,489.077 318.443,489.144C319.543,489.377 319.81,489.911 319.877,491.044C319.943,492.111 319.943,493.044 319.943,498.111L319.943,503.977C319.943,507.044 319.943,509.677 319.777,511.077C319.643,512.044 319.477,512.777 318.81,512.911C318.51,512.977 318.11,513.044 317.61,513.044C317.21,513.044 317.077,513.144 317.077,513.311C317.077,513.544 317.31,513.644 317.743,513.644C319.077,513.644 321.177,513.544 321.943,513.544C322.877,513.544 324.977,513.644 327.143,513.644C327.543,513.644 327.81,513.544 327.81,513.311C327.81,513.144 327.643,513.044 327.277,513.044C326.777,513.044 326.043,512.977 325.577,512.911C324.577,512.777 324.377,512.044 324.277,511.111C324.11,509.677 324.11,507.044 324.11,503.977L324.11,501.044C324.11,500.877 324.21,500.844 324.31,500.844L337.043,500.844C337.143,500.844 337.243,500.911 337.243,501.044L337.243,503.977C337.243,507.044 337.243,509.677 337.077,511.077C336.943,512.044 336.777,512.777 336.11,512.911C335.81,512.977 335.41,513.044 334.91,513.044C334.51,513.044 334.377,513.144 334.377,513.311C334.377,513.544 334.61,513.644 335.077,513.644C336.377,513.644 338.477,513.544 339.243,513.544C340.177,513.544 342.277,513.644 344.443,513.644C344.843,513.644 345.11,513.544 345.11,513.311C345.11,513.144 344.943,513.044 344.577,513.044C344.077,513.044 343.343,512.977 342.877,512.911C341.877,512.777 341.677,512.044 341.577,511.111C341.41,509.677 341.41,507.044 341.41,503.977L341.41,498.111C341.41,493.044 341.41,492.111 341.477,491.044C341.543,489.877 341.81,489.311 342.71,489.144C343.11,489.077 343.41,489.044 343.677,489.044C344.077,489.044 344.277,488.977 344.277,488.744C344.277,488.511 344.043,488.444 343.577,488.444C342.277,488.444 340.177,488.544 339.377,488.544C338.477,488.544 336.377,488.444 334.577,488.444C334.11,488.444 333.877,488.511 333.877,488.744C333.877,488.977 334.077,489.044 334.443,489.044C334.91,489.044 335.477,489.077 335.743,489.144C336.843,489.377 337.11,489.911 337.177,491.044C337.243,492.111 337.243,493.044 337.243,498.111L337.243,498.811C337.243,498.977 337.143,499.044 337.043,499.044L324.31,499.044Z" style="fill:white;fill-rule:nonzero;"/>
                <path d="M352.343,503.977C352.343,507.044 352.343,509.677 352.177,511.077C352.043,512.044 351.877,512.777 351.21,512.911C350.91,512.977 350.51,513.044 350.01,513.044C349.61,513.044 349.477,513.144 349.477,513.311C349.477,513.544 349.71,513.644 350.143,513.644C350.81,513.644 351.677,513.577 352.443,513.577C353.243,513.544 353.977,513.544 354.343,513.544C355.343,513.544 356.377,513.577 357.81,513.644C359.243,513.677 361.077,513.744 363.577,513.744C364.843,513.744 365.143,513.744 365.377,512.877C365.543,512.211 365.81,509.944 365.81,509.177C365.81,508.844 365.81,508.577 365.543,508.577C365.31,508.577 365.243,508.711 365.177,509.077C364.943,510.444 364.543,511.144 363.677,511.544C362.81,511.944 361.41,511.944 360.543,511.944C357.143,511.944 356.61,511.444 356.543,509.144C356.51,508.177 356.543,505.111 356.543,503.977L356.543,501.344C356.543,501.144 356.577,501.011 356.743,501.011C357.543,501.011 360.843,501.044 361.477,501.111C362.71,501.244 363.177,501.744 363.343,502.411C363.443,502.844 363.443,503.277 363.477,503.611C363.477,503.777 363.543,503.911 363.777,503.911C364.077,503.911 364.077,503.544 364.077,503.277C364.077,503.044 364.177,501.711 364.21,501.044C364.343,499.344 364.477,498.811 364.477,498.611C364.477,498.411 364.377,498.344 364.243,498.344C364.077,498.344 363.943,498.511 363.71,498.777C363.41,499.111 362.91,499.211 362.11,499.277C361.343,499.344 357.51,499.344 356.777,499.344C356.577,499.344 356.543,499.211 356.543,498.977L356.543,490.544C356.543,490.311 356.61,490.211 356.777,490.211C357.443,490.211 360.943,490.277 361.51,490.344C363.177,490.544 363.51,490.944 363.743,491.544C363.91,491.944 363.943,492.511 363.943,492.744C363.943,493.044 364.01,493.211 364.243,493.211C364.477,493.211 364.543,493.011 364.577,492.844C364.643,492.444 364.71,490.977 364.743,490.644C364.843,489.111 365.01,488.711 365.01,488.477C365.01,488.311 364.977,488.177 364.81,488.177C364.643,488.177 364.443,488.277 364.277,488.311C364.01,488.377 363.477,488.444 362.843,488.511C362.21,488.544 355.577,488.544 354.51,488.544C354.043,488.544 353.277,488.511 352.41,488.477C351.577,488.477 350.61,488.444 349.71,488.444C349.21,488.444 348.977,488.511 348.977,488.744C348.977,488.977 349.177,489.044 349.543,489.044C350.01,489.044 350.577,489.077 350.843,489.144C351.943,489.377 352.21,489.911 352.277,491.044C352.343,492.111 352.343,493.044 352.343,498.111L352.343,503.977Z" style="fill:white;fill-rule:nonzero;"/>
                <path d="M385.343,514.111C387.477,514.111 390.01,513.877 391.343,513.344C391.91,513.111 392.043,512.944 392.21,512.377C392.543,511.244 392.943,508.344 392.943,507.944C392.943,507.677 392.877,507.444 392.643,507.444C392.377,507.444 392.31,507.577 392.21,508.111C392.077,508.711 391.643,509.677 391.077,510.311C389.743,511.844 387.943,512.177 384.977,512.177C380.51,512.177 374.477,508.244 374.477,500.311C374.477,497.077 375.11,493.911 377.543,491.677C379.01,490.344 380.91,489.611 383.81,489.611C386.877,489.611 389.477,490.511 390.577,491.677C391.41,492.544 391.843,493.711 391.877,494.744C391.877,495.211 391.943,495.477 392.21,495.477C392.51,495.477 392.577,495.211 392.61,494.711C392.677,494.044 392.643,492.211 392.71,491.111C392.777,489.944 392.877,489.544 392.877,489.277C392.877,489.077 392.743,488.911 392.377,488.877C391.377,488.777 390.31,488.477 389.043,488.311C387.51,488.111 386.277,487.977 384.21,487.977C379.243,487.977 376.077,489.311 373.677,491.511C370.477,494.444 369.777,498.377 369.777,500.644C369.777,503.877 370.643,507.611 373.91,510.477C376.943,513.111 380.777,514.111 385.343,514.111Z" style="fill:white;fill-rule:nonzero;"/>
                <path d="M404.443,499.044C404.343,499.044 404.243,498.977 404.243,498.811L404.243,498.111C404.243,493.044 404.243,492.111 404.31,491.044C404.377,489.877 404.643,489.311 405.543,489.144C405.943,489.077 406.243,489.044 406.51,489.044C406.91,489.044 407.11,488.977 407.11,488.744C407.11,488.511 406.877,488.444 406.41,488.444C405.11,488.444 403.01,488.544 402.21,488.544C401.31,488.544 399.21,488.444 397.41,488.444C396.943,488.444 396.71,488.511 396.71,488.744C396.71,488.977 396.91,489.044 397.277,489.044C397.743,489.044 398.31,489.077 398.577,489.144C399.677,489.377 399.943,489.911 400.01,491.044C400.077,492.111 400.077,493.044 400.077,498.111L400.077,503.977C400.077,507.044 400.077,509.677 399.91,511.077C399.777,512.044 399.61,512.777 398.943,512.911C398.643,512.977 398.243,513.044 397.743,513.044C397.343,513.044 397.21,513.144 397.21,513.311C397.21,513.544 397.443,513.644 397.877,513.644C399.21,513.644 401.31,513.544 402.077,513.544C403.01,513.544 405.11,513.644 407.277,513.644C407.677,513.644 407.943,513.544 407.943,513.311C407.943,513.144 407.777,513.044 407.41,513.044C406.91,513.044 406.177,512.977 405.71,512.911C404.71,512.777 404.51,512.044 404.41,511.111C404.243,509.677 404.243,507.044 404.243,503.977L404.243,501.044C404.243,500.877 404.343,500.844 404.443,500.844L417.177,500.844C417.277,500.844 417.377,500.911 417.377,501.044L417.377,503.977C417.377,507.044 417.377,509.677 417.21,511.077C417.077,512.044 416.91,512.777 416.243,512.911C415.943,512.977 415.543,513.044 415.043,513.044C414.643,513.044 414.51,513.144 414.51,513.311C414.51,513.544 414.743,513.644 415.21,513.644C416.51,513.644 418.61,513.544 419.377,513.544C420.31,513.544 422.41,513.644 424.577,513.644C424.977,513.644 425.243,513.544 425.243,513.311C425.243,513.144 425.077,513.044 424.71,513.044C424.21,513.044 423.477,512.977 423.01,512.911C422.01,512.777 421.81,512.044 421.71,511.111C421.543,509.677 421.543,507.044 421.543,503.977L421.543,498.111C421.543,493.044 421.543,492.111 421.61,491.044C421.677,489.877 421.943,489.311 422.843,489.144C423.243,489.077 423.543,489.044 423.81,489.044C424.21,489.044 424.41,488.977 424.41,488.744C424.41,488.511 424.177,488.444 423.71,488.444C422.41,488.444 420.31,488.544 419.51,488.544C418.61,488.544 416.51,488.444 414.71,488.444C414.243,488.444 414.01,488.511 414.01,488.744C414.01,488.977 414.21,489.044 414.577,489.044C415.043,489.044 415.61,489.077 415.877,489.144C416.977,489.377 417.243,489.911 417.31,491.044C417.377,492.111 417.377,493.044 417.377,498.111L417.377,498.811C417.377,498.977 417.277,499.044 417.177,499.044L404.443,499.044Z" style="fill:white;fill-rule:nonzero;"/>
                <path d="M441.943,514.111C450.41,514.111 455.743,508.077 455.743,500.444C455.743,492.811 450.577,487.977 442.277,487.977C432.277,487.977 428.51,495.344 428.51,501.044C428.51,506.944 432.377,514.111 441.943,514.111ZM443.343,512.444C436.943,512.444 433.11,506.944 433.11,500.011C433.11,491.711 437.477,489.577 441.31,489.577C446.777,489.577 451.077,494.211 451.077,501.677C451.077,511.311 445.677,512.444 443.343,512.444Z" style="fill:white;fill-rule:nonzero;"/>
                <path d="M473.043,503.977C473.043,507.044 473.043,509.677 472.877,511.077C472.743,512.044 472.577,512.777 471.91,512.911C471.61,512.977 471.21,513.044 470.71,513.044C470.31,513.044 470.177,513.144 470.177,513.311C470.177,513.544 470.41,513.644 470.843,513.644C471.51,513.644 472.377,513.577 473.143,513.577C473.943,513.544 474.677,513.544 475.043,513.544C476.043,513.544 477.077,513.577 478.51,513.644C479.943,513.677 481.777,513.744 484.277,513.744C485.543,513.744 485.843,513.744 486.077,512.877C486.243,512.211 486.51,509.944 486.51,509.177C486.51,508.844 486.51,508.577 486.243,508.577C486.01,508.577 485.943,508.711 485.877,509.077C485.643,510.444 485.243,511.144 484.377,511.544C483.51,511.944 482.11,511.944 481.243,511.944C477.843,511.944 477.31,511.444 477.243,509.144C477.21,508.177 477.243,505.111 477.243,503.977L477.243,501.344C477.243,501.144 477.277,501.011 477.443,501.011C478.243,501.011 481.543,501.044 482.177,501.111C483.41,501.244 483.877,501.744 484.043,502.411C484.143,502.844 484.143,503.277 484.177,503.611C484.177,503.777 484.243,503.911 484.477,503.911C484.777,503.911 484.777,503.544 484.777,503.277C484.777,503.044 484.877,501.711 484.91,501.044C485.043,499.344 485.177,498.811 485.177,498.611C485.177,498.411 485.077,498.344 484.943,498.344C484.777,498.344 484.643,498.511 484.41,498.777C484.11,499.111 483.61,499.211 482.81,499.277C482.043,499.344 478.21,499.344 477.477,499.344C477.277,499.344 477.243,499.211 477.243,498.977L477.243,490.544C477.243,490.311 477.31,490.211 477.477,490.211C478.143,490.211 481.643,490.277 482.21,490.344C483.877,490.544 484.21,490.944 484.443,491.544C484.61,491.944 484.643,492.511 484.643,492.744C484.643,493.044 484.71,493.211 484.943,493.211C485.177,493.211 485.243,493.011 485.277,492.844C485.343,492.444 485.41,490.977 485.443,490.644C485.543,489.111 485.71,488.711 485.71,488.477C485.71,488.311 485.677,488.177 485.51,488.177C485.343,488.177 485.143,488.277 484.977,488.311C484.71,488.377 484.177,488.444 483.543,488.511C482.91,488.544 476.277,488.544 475.21,488.544C474.743,488.544 473.977,488.511 473.11,488.477C472.277,488.477 471.31,488.444 470.41,488.444C469.91,488.444 469.677,488.511 469.677,488.744C469.677,488.977 469.877,489.044 470.243,489.044C470.71,489.044 471.277,489.077 471.543,489.144C472.643,489.377 472.91,489.911 472.977,491.044C473.043,492.111 473.043,493.044 473.043,498.111L473.043,503.977Z" style="fill:white;fill-rule:nonzero;"/>
                <path d="M495.61,495.111L495.71,495.111C496.31,495.744 500.01,499.911 503.643,503.511C507.11,506.944 511.377,511.311 513.477,513.311C513.843,513.677 514.243,514.044 514.61,514.044C514.91,514.044 515.043,513.744 515.043,513.011L515.41,491.977C515.443,490.111 515.71,489.411 516.643,489.144C517.043,489.044 517.31,489.044 517.643,489.044C518.043,489.044 518.243,488.944 518.243,488.744C518.243,488.477 517.91,488.444 517.477,488.444C515.843,488.444 514.577,488.544 514.21,488.544C513.51,488.544 511.91,488.444 510.177,488.444C509.677,488.444 509.31,488.477 509.31,488.744C509.31,488.944 509.443,489.044 509.843,489.044C510.31,489.044 511.11,489.044 511.61,489.244C512.41,489.577 512.71,490.211 512.743,492.244L513.077,507.211L512.91,507.211C512.343,506.677 507.843,501.877 505.577,499.611C500.71,494.777 495.643,489.344 495.243,488.911C494.677,488.311 494.377,487.877 494.01,487.877C493.677,487.877 493.577,488.344 493.577,489.011L493.277,508.744C493.243,511.644 493.11,512.611 492.243,512.877C491.777,513.011 491.177,513.044 490.743,513.044C490.41,513.044 490.21,513.111 490.21,513.311C490.21,513.611 490.51,513.644 490.943,513.644C492.677,513.644 494.243,513.544 494.543,513.544C495.177,513.544 496.51,513.644 498.677,513.644C499.143,513.644 499.443,513.577 499.443,513.311C499.443,513.111 499.243,513.044 498.877,513.044C498.343,513.044 497.71,513.011 497.143,512.811C496.477,512.577 496.043,511.711 495.977,509.111L495.61,495.111Z" style="fill:white;fill-rule:nonzero;"/>
                <path d="M533.61,510.311C533.443,511.444 533.177,512.744 532.243,512.944C531.743,513.044 531.51,513.044 531.243,513.044C530.91,513.044 530.71,513.111 530.71,513.277C530.71,513.577 530.977,513.644 531.31,513.644C532.377,513.644 533.977,513.544 534.61,513.544C535.21,513.544 536.71,513.644 538.11,513.644C538.61,513.644 538.91,513.577 538.91,513.277C538.91,513.111 538.677,513.044 538.41,513.044C538.077,513.044 537.61,513.011 537.01,512.877C536.443,512.744 536.01,512.444 536.01,511.811C536.01,511.277 536.043,510.844 536.11,510.244L537.843,496.977L537.977,496.977C539.143,499.477 541.143,503.677 541.443,504.377C541.843,505.311 544.477,510.411 545.277,511.944C545.81,512.944 546.143,513.611 546.443,513.611C546.743,513.611 546.91,513.311 547.677,511.744L554.943,496.611L555.077,496.611L557.077,511.277C557.21,512.211 557.11,512.644 556.91,512.711C556.677,512.811 556.543,512.911 556.543,513.077C556.543,513.277 556.743,513.377 557.51,513.444C558.843,513.544 563.443,513.644 564.277,513.644C564.743,513.644 565.143,513.544 565.143,513.277C565.143,513.077 564.91,513.044 564.61,513.044C564.177,513.044 563.51,513.011 562.543,512.711C561.543,512.411 561.21,511.444 560.91,509.344L557.877,488.744C557.777,488.044 557.577,487.711 557.277,487.711C556.977,487.711 556.81,487.977 556.543,488.511L547.477,507.544L538.377,488.744C537.943,487.877 537.743,487.711 537.477,487.711C537.21,487.711 537.01,488.011 536.91,488.577L533.61,510.311Z" style="fill:white;fill-rule:nonzero;"/>
                <path d="M570.443,503.977C570.443,507.044 570.443,509.677 570.277,511.077C570.143,512.044 569.977,512.777 569.31,512.911C569.01,512.977 568.61,513.044 568.11,513.044C567.71,513.044 567.577,513.144 567.577,513.311C567.577,513.544 567.81,513.644 568.243,513.644C568.91,513.644 569.777,513.577 570.543,513.577C571.343,513.544 572.077,513.544 572.443,513.544C573.443,513.544 574.477,513.577 575.91,513.644C577.343,513.677 579.177,513.744 581.677,513.744C582.943,513.744 583.243,513.744 583.477,512.877C583.643,512.211 583.91,509.944 583.91,509.177C583.91,508.844 583.91,508.577 583.643,508.577C583.41,508.577 583.343,508.711 583.277,509.077C583.043,510.444 582.643,511.144 581.777,511.544C580.91,511.944 579.51,511.944 578.643,511.944C575.243,511.944 574.71,511.444 574.643,509.144C574.61,508.177 574.643,505.111 574.643,503.977L574.643,501.344C574.643,501.144 574.677,501.011 574.843,501.011C575.643,501.011 578.943,501.044 579.577,501.111C580.81,501.244 581.277,501.744 581.443,502.411C581.543,502.844 581.543,503.277 581.577,503.611C581.577,503.777 581.643,503.911 581.877,503.911C582.177,503.911 582.177,503.544 582.177,503.277C582.177,503.044 582.277,501.711 582.31,501.044C582.443,499.344 582.577,498.811 582.577,498.611C582.577,498.411 582.477,498.344 582.343,498.344C582.177,498.344 582.043,498.511 581.81,498.777C581.51,499.111 581.01,499.211 580.21,499.277C579.443,499.344 575.61,499.344 574.877,499.344C574.677,499.344 574.643,499.211 574.643,498.977L574.643,490.544C574.643,490.311 574.71,490.211 574.877,490.211C575.543,490.211 579.043,490.277 579.61,490.344C581.277,490.544 581.61,490.944 581.843,491.544C582.01,491.944 582.043,492.511 582.043,492.744C582.043,493.044 582.11,493.211 582.343,493.211C582.577,493.211 582.643,493.011 582.677,492.844C582.743,492.444 582.81,490.977 582.843,490.644C582.943,489.111 583.11,488.711 583.11,488.477C583.11,488.311 583.077,488.177 582.91,488.177C582.743,488.177 582.543,488.277 582.377,488.311C582.11,488.377 581.577,488.444 580.943,488.511C580.31,488.544 573.677,488.544 572.61,488.544C572.143,488.544 571.377,488.511 570.51,488.477C569.677,488.477 568.71,488.444 567.81,488.444C567.31,488.444 567.077,488.511 567.077,488.744C567.077,488.977 567.277,489.044 567.643,489.044C568.11,489.044 568.677,489.077 568.943,489.144C570.043,489.377 570.31,489.911 570.377,491.044C570.443,492.111 570.443,493.044 570.443,498.111L570.443,503.977ZM580.377,481.144C580.21,480.844 580.143,480.744 579.91,480.744C579.81,480.744 579.577,480.811 579.243,481.044C578.71,481.377 575.21,483.977 573.877,485.244C573.71,485.411 573.577,485.544 573.577,485.677C573.577,485.811 573.71,485.877 573.777,485.877C573.843,485.877 574.077,485.744 574.343,485.611C575.577,484.944 578.21,483.877 580.043,483.644C580.71,483.577 581.01,483.644 581.177,483.644C581.343,483.644 581.543,483.544 581.343,483.144C580.943,482.244 580.643,481.611 580.377,481.144Z" style="fill:white;fill-rule:nonzero;"/>
                <path d="M605.743,491.844C606.743,490.377 607.41,489.444 608.177,489.244C608.643,489.111 609.043,489.044 609.377,489.044C609.71,489.044 609.91,488.944 609.91,488.744C609.91,488.544 609.677,488.444 609.31,488.444C608.077,488.444 606.71,488.544 606.043,488.544C605.41,488.544 604.01,488.444 602.71,488.444C602.243,488.444 602.01,488.544 602.01,488.744C602.01,488.977 602.21,489.044 602.41,489.044C602.677,489.044 603.143,489.044 603.477,489.144C603.81,489.244 604.043,489.511 604.043,489.744C604.043,490.011 603.943,490.544 603.677,491.011C603.177,491.944 600.11,496.577 599.143,498.044C597.843,495.777 596.343,493.344 594.91,490.677C594.71,490.311 594.577,489.911 594.577,489.711C594.577,489.511 594.677,489.277 594.977,489.177C595.243,489.077 595.677,489.044 595.877,489.044C596.177,489.044 596.377,488.977 596.377,488.744C596.377,488.511 596.177,488.444 595.71,488.444C594.477,488.444 592.61,488.544 592.143,488.544C590.577,488.544 587.877,488.444 587.077,488.444C586.643,488.444 586.41,488.511 586.41,488.711C586.41,488.944 586.543,489.044 586.743,489.044C587.077,489.044 587.61,489.111 588.143,489.277C589.31,489.644 590.11,490.444 590.91,491.777L596.643,501.277L590.277,510.377C589.143,511.977 588.51,512.611 587.543,512.877C587.043,513.011 586.543,513.044 586.31,513.044C586.043,513.044 585.843,513.144 585.843,513.344C585.843,513.544 586.01,513.644 586.343,513.644L586.91,513.644C587.443,513.644 589.077,513.544 589.71,513.544C590.543,513.544 592.643,513.644 592.843,513.644L593.443,513.644C593.877,513.644 594.11,513.577 594.11,513.344C594.11,513.144 593.91,513.044 593.71,513.044C593.443,513.044 593.143,513.011 592.943,512.977C592.643,512.911 592.343,512.711 592.31,512.411C592.277,512.044 592.443,511.544 592.777,511.011L597.71,503.044C599.243,505.544 601.143,508.844 602.977,512.111C603.21,512.544 603.077,512.844 602.91,512.877C602.61,512.944 602.443,513.044 602.443,513.244C602.443,513.477 602.71,513.544 603.577,513.577C606.143,513.644 608.777,513.644 609.577,513.644L610.577,513.644C610.943,513.644 611.21,513.544 611.21,513.311C611.21,513.111 611.01,513.044 610.777,513.044C610.477,513.044 610.077,513.011 609.51,512.844C608.643,512.577 608.143,512.177 607.577,511.444C606.743,510.377 601.343,501.344 600.277,499.711L605.743,491.844Z" style="fill:white;fill-rule:nonzero;"/>
                <path d="M615.743,503.977C615.743,507.211 615.743,509.844 615.577,511.244C615.477,512.211 615.277,512.777 614.61,512.911C614.31,512.977 613.91,513.044 613.41,513.044C613.01,513.044 612.877,513.144 612.877,513.311C612.877,513.544 613.11,513.644 613.543,513.644C614.877,513.644 616.977,513.544 617.743,513.544C618.643,513.544 620.743,513.644 622.943,513.644C623.31,513.644 623.577,513.544 623.577,513.311C623.577,513.144 623.41,513.044 623.043,513.044C622.543,513.044 621.81,512.977 621.343,512.911C620.343,512.777 620.11,512.177 620.01,511.277C619.877,509.844 619.877,507.211 619.877,503.977L619.877,498.111C619.877,493.044 619.877,492.111 619.943,491.044C620.01,489.877 620.277,489.311 621.177,489.144C621.577,489.077 621.843,489.044 622.177,489.044C622.51,489.044 622.71,488.977 622.71,488.711C622.71,488.511 622.443,488.444 622.01,488.444C620.743,488.444 618.777,488.544 617.943,488.544C616.977,488.544 614.877,488.444 613.61,488.444C613.077,488.444 612.81,488.511 612.81,488.711C612.81,488.977 613.01,489.044 613.343,489.044C613.743,489.044 614.177,489.077 614.543,489.177C615.277,489.344 615.61,489.911 615.677,491.044C615.743,492.111 615.743,493.044 615.743,498.111L615.743,503.977Z" style="fill:white;fill-rule:nonzero;"/>
                <path d="M642.41,514.111C644.543,514.111 647.077,513.877 648.41,513.344C648.977,513.111 649.11,512.944 649.277,512.377C649.61,511.244 650.01,508.344 650.01,507.944C650.01,507.677 649.943,507.444 649.71,507.444C649.443,507.444 649.377,507.577 649.277,508.111C649.143,508.711 648.71,509.677 648.143,510.311C646.81,511.844 645.01,512.177 642.043,512.177C637.577,512.177 631.543,508.244 631.543,500.311C631.543,497.077 632.177,493.911 634.61,491.677C636.077,490.344 637.977,489.611 640.877,489.611C643.943,489.611 646.543,490.511 647.643,491.677C648.477,492.544 648.91,493.711 648.943,494.744C648.943,495.211 649.01,495.477 649.277,495.477C649.577,495.477 649.643,495.211 649.677,494.711C649.743,494.044 649.71,492.211 649.777,491.111C649.843,489.944 649.943,489.544 649.943,489.277C649.943,489.077 649.81,488.911 649.443,488.877C648.443,488.777 647.377,488.477 646.11,488.311C644.577,488.111 643.343,487.977 641.277,487.977C636.31,487.977 633.143,489.311 630.743,491.511C627.543,494.444 626.843,498.377 626.843,500.644C626.843,503.877 627.71,507.611 630.977,510.477C634.01,513.111 637.843,514.111 642.41,514.111Z" style="fill:white;fill-rule:nonzero;"/>
                <path d="M666.943,514.111C675.41,514.111 680.743,508.077 680.743,500.444C680.743,492.811 675.577,487.977 667.277,487.977C657.277,487.977 653.51,495.344 653.51,501.044C653.51,506.944 657.377,514.111 666.943,514.111ZM668.343,512.444C661.943,512.444 658.11,506.944 658.11,500.011C658.11,491.711 662.477,489.577 666.31,489.577C671.777,489.577 676.077,494.211 676.077,501.677C676.077,511.311 670.677,512.444 668.343,512.444Z" style="fill:white;fill-rule:nonzero;"/>
            </g>
        </g>
    </g>
</svg>
